<svg width="32" height="32" viewBox="0 0 32 32" fill="none" xmlns="http://www.w3.org/2000/svg">
<path d="M26.1426 9.32659C26.0413 8.92925 25.7533 8.62925 25.424 8.53725C24.84 8.37325 22.0013 7.99992 16.0013 7.99992C10.0013 7.99992 7.16396 8.37325 6.57596 8.53725C6.25063 8.62792 5.96263 8.92792 5.85996 9.32659C5.71463 9.89192 5.33463 12.2599 5.33463 15.9999C5.33463 19.7399 5.71463 22.1066 5.85996 22.6746C5.96129 23.0706 6.24929 23.3706 6.57729 23.4613C7.16396 23.6266 9.99996 23.9999 16 23.9999C22 23.9999 24.8386 23.6266 25.4253 23.4626C25.7506 23.3719 26.0386 23.0719 26.1413 22.6733C26.288 22.1079 26.6666 19.7333 26.6666 15.9999C26.6666 12.2666 26.288 9.89325 26.1426 9.32659ZM28.724 8.66392C29.3333 11.0399 29.3333 15.9999 29.3333 15.9999C29.3333 15.9999 29.3333 20.9599 28.724 23.3359C28.3853 24.6493 27.3946 25.6826 26.14 26.0319C23.8626 26.6666 16 26.6666 16 26.6666C16 26.6666 8.14263 26.6666 5.85996 26.0319C4.59996 25.6773 3.61063 24.6453 3.27596 23.3359C2.66663 20.9599 2.66663 15.9999 2.66663 15.9999C2.66663 15.9999 2.66663 11.0399 3.27596 8.66392C3.61463 7.35059 4.60529 6.31725 5.85996 5.96792C8.14396 5.33325 16.0013 5.33325 16.0013 5.33325C16.0013 5.33325 23.8626 5.33325 26.1413 5.96792C27.4 6.32259 28.3906 7.35459 28.7253 8.66392M13.3346 20.6666V11.3333L21.3346 15.9999L13.3346 20.6666Z" fill="#FFF4E8"/>
</svg>
