<svg width="32" height="32" viewBox="0 0 32 32" fill="none" xmlns="http://www.w3.org/2000/svg">
<path d="M14.6667 2.66675V11.2187C12.8205 10.8761 10.9135 11.1108 9.20542 11.891C7.49738 12.6711 6.07131 13.9588 5.12144 15.5786C4.17156 17.1984 3.74404 19.0716 3.8971 20.9432C4.05015 22.8147 4.77635 24.5936 5.97679 26.0375C7.17722 27.4815 8.79355 28.5203 10.6057 29.0126C12.4178 29.5049 14.3376 29.4267 16.1036 28.7886C17.8696 28.1505 19.3961 26.9836 20.4751 25.4468C21.554 23.9099 22.1331 22.0779 22.1334 20.2001V15.2187C23.5667 15.8284 25.1092 16.1396 26.6667 16.1334H28V8.66675H26.6667C24.1294 8.66675 22.1334 6.61741 22.1334 4.00008V2.66675H14.6667ZM17.3334 5.33341H19.584C20.1094 8.29342 22.3574 10.6614 25.3334 11.2134V13.3707C23.9494 13.1681 22.7 12.6481 21.5427 11.8734L19.4667 10.4841V20.2001C19.4666 21.4932 19.0788 22.7567 18.3533 23.8272C17.6279 24.8977 16.5981 25.7261 15.3971 26.2055C14.196 26.6848 12.8789 26.7931 11.6157 26.5162C10.3525 26.2394 9.20132 25.5902 8.31084 24.6525C7.42036 23.7148 6.83147 22.5316 6.62023 21.2558C6.40899 19.98 6.58511 18.6702 7.12584 17.4955C7.66656 16.3208 8.54706 15.3352 9.65361 14.666C10.7602 13.9968 12.0419 13.6748 13.3334 13.7414V15.8801C12.4647 15.8131 11.5959 16.0095 10.8405 16.4437C10.0852 16.8779 9.4782 17.5297 9.09889 18.3141C8.71958 19.0985 8.58554 19.979 8.71425 20.8407C8.84296 21.7024 9.22845 22.5054 9.82041 23.1447C10.4124 23.784 11.1833 24.23 12.0326 24.4245C12.8819 24.6191 13.7701 24.553 14.5813 24.2351C15.3925 23.9172 16.089 23.3621 16.58 22.6423C17.0709 21.9225 17.3335 21.0714 17.3334 20.2001V5.33341ZM11.3334 20.2001C11.3334 19.7581 11.509 19.3341 11.8215 19.0216C12.1341 18.709 12.558 18.5334 13 18.5334C13.4421 18.5334 13.866 18.709 14.1786 19.0216C14.4911 19.3341 14.6667 19.7581 14.6667 20.2001C14.6667 20.6421 14.4911 21.066 14.1786 21.3786C13.866 21.6912 13.4421 21.8667 13 21.8667C12.558 21.8667 12.1341 21.6912 11.8215 21.3786C11.509 21.066 11.3334 20.6421 11.3334 20.2001Z" fill="#FFF4E8"/>
</svg>
