<svg width="60" height="14" viewBox="0 0 60 14" fill="none" xmlns="http://www.w3.org/2000/svg">
<path d="M59.5568 1.05957V12.9396H58.0268V4.36257L58.1078 3.04857L57.7838 4.49757L54.9218 12.2646H53.4008L50.5388 4.49757L50.2238 3.04857L50.2958 4.36257V12.9396H48.7568V1.05957H50.8088L54.0488 10.3836L54.1568 10.9866L54.2738 10.3836L57.5228 1.05957H59.5568Z" fill="white"/>
<path d="M39.5576 1.05957H42.9236C43.6676 1.05957 44.3366 1.18257 44.9306 1.42857C45.5306 1.66857 46.0076 2.04657 46.3616 2.56257C46.7156 3.07857 46.8926 3.75057 46.8926 4.57857C46.8926 5.40057 46.7156 6.08157 46.3616 6.62157C46.0076 7.16157 45.5306 7.56657 44.9306 7.83657C44.3366 8.10057 43.6676 8.23257 42.9236 8.23257H41.0966V12.9396H39.5576V1.05957ZM41.0966 6.94557H42.5006C43.0106 6.94557 43.4726 6.87057 43.8866 6.72057C44.3066 6.57057 44.6396 6.32457 44.8856 5.98257C45.1376 5.64057 45.2636 5.18157 45.2636 4.60557C45.2636 4.02357 45.1376 3.57057 44.8856 3.24657C44.6396 2.91657 44.3066 2.68557 43.8866 2.55357C43.4726 2.41557 43.0106 2.34657 42.5006 2.34657H41.0966V6.94557Z" fill="white"/>
<path d="M31.9493 1.05957V9.05157H33.3082V10.4376H31.9493V12.9396H30.4013V10.4376H25.4062V9.15957L30.2752 1.05957H31.9493ZM30.4013 9.05157V3.39057H30.3923L27.0352 9.05157H30.4013Z" fill="white"/>
<path d="M20.1423 2.20275C19.6443 2.20275 19.2093 2.30475 18.8373 2.50875C18.4713 2.70675 18.1623 2.94075 17.9103 3.21075C17.6643 3.47475 17.4753 3.71775 17.3433 3.93975C17.2173 4.15575 17.1483 4.27575 17.1363 4.29975L15.7773 3.70575C15.7893 3.65175 15.8463 3.52275 15.9483 3.31875C16.0503 3.10875 16.2093 2.86575 16.4253 2.58975C16.6413 2.31375 16.9173 2.04375 17.2533 1.77975C17.5893 1.50975 17.9943 1.28775 18.4683 1.11375C18.9483 0.93375 19.5063 0.84375 20.1423 0.84375C20.7903 0.84375 21.3513 0.93375 21.8253 1.11375C22.2993 1.29375 22.6893 1.54575 22.9953 1.86975C23.3013 2.19375 23.5293 2.57775 23.6793 3.02175C23.8293 3.46575 23.9043 3.94875 23.9043 4.47075C23.9043 4.97475 23.7843 5.49075 23.5443 6.01875C23.3043 6.54675 22.9923 7.06575 22.6083 7.57575C22.2243 8.07975 21.8103 8.55675 21.3663 9.00675C20.9283 9.45075 20.5023 9.85275 20.0883 10.2128C19.6803 10.5728 19.3263 10.8698 19.0263 11.1038C18.7323 11.3317 18.5403 11.4818 18.4503 11.5538H23.8053V12.9398H16.0473V11.6708C16.2333 11.5268 16.5123 11.3077 16.8843 11.0138C17.2623 10.7137 17.6883 10.3628 18.1623 9.96075C18.6363 9.55875 19.1163 9.12375 19.6023 8.65575C20.0883 8.18775 20.5383 7.71075 20.9523 7.22475C21.3663 6.73275 21.6993 6.25275 21.9513 5.78475C22.2093 5.31075 22.3383 4.86675 22.3383 4.45275C22.3383 3.62475 22.1463 3.04275 21.7623 2.70675C21.3843 2.37075 20.8443 2.20275 20.1423 2.20275Z" fill="white"/>
<path d="M12.9208 13.1557C12.5908 13.1557 12.3058 13.0387 12.0658 12.8047C11.8318 12.5647 11.7148 12.2797 11.7148 11.9497C11.7148 11.6077 11.8318 11.3197 12.0658 11.0857C12.3058 10.8457 12.5908 10.7257 12.9208 10.7257C13.2628 10.7257 13.5508 10.8457 13.7848 11.0857C14.0188 11.3197 14.1358 11.6077 14.1358 11.9497C14.1358 12.2797 14.0188 12.5647 13.7848 12.8047C13.5508 13.0387 13.2628 13.1557 12.9208 13.1557ZM12.9208 7.44074C12.5908 7.44074 12.3058 7.32374 12.0658 7.08974C11.8318 6.84974 11.7148 6.56474 11.7148 6.23474C11.7148 5.89274 11.8318 5.60474 12.0658 5.37074C12.3058 5.13074 12.5908 5.01074 12.9208 5.01074C13.2628 5.01074 13.5508 5.13074 13.7848 5.37074C14.0188 5.60474 14.1358 5.89274 14.1358 6.23474C14.1358 6.56474 14.0188 6.84974 13.7848 7.08974C13.5508 7.32374 13.2628 7.44074 12.9208 7.44074Z" fill="white"/>
<path d="M7.56295 2.97657L5.50195 4.14657V2.63457L8.22895 1.05957H9.11095V12.9396H7.56295V2.97657Z" fill="white"/>
<path d="M2.061 2.97657L0 4.14657V2.63457L2.727 1.05957H3.609V12.9396H2.061V2.97657Z" fill="white"/>
</svg>
