<svg width="59" height="14" viewBox="0 0 59 14" fill="none" xmlns="http://www.w3.org/2000/svg">
<path d="M59.0051 0.952148V12.8321H57.4751V4.25515L57.5561 2.94115L57.2321 4.39015L54.3701 12.1571H52.8491L49.9871 4.39015L49.6721 2.94115L49.7441 4.25515V12.8321H48.2051V0.952148H50.2571L53.4971 10.2761L53.6051 10.8791L53.7221 10.2761L56.9711 0.952148H59.0051Z" fill="white"/>
<path d="M40.9862 0.952148H42.5882L46.9802 12.8321H45.3332L44.3072 9.97015H39.2672L38.2232 12.8321H36.5762L40.9862 0.952148ZM39.7622 8.58415H43.8212L41.8052 2.84215H41.7782L39.7622 8.58415Z" fill="white"/>
<path d="M24.4652 10.2041C24.5012 10.3121 24.5702 10.4501 24.6722 10.6181C24.7802 10.7861 24.9272 10.9541 25.1132 11.1221C25.2992 11.2841 25.5332 11.4221 25.8152 11.5361C26.0972 11.6501 26.4362 11.7071 26.8322 11.7071C27.6302 11.7071 28.2542 11.4521 28.7042 10.9421C29.1542 10.4261 29.3762 9.74815 29.3702 8.90815C29.3642 8.12815 29.1572 7.52515 28.7492 7.09915C28.3412 6.67315 27.7982 6.46015 27.1202 6.46015C26.7002 6.46015 26.3312 6.53815 26.0132 6.69415C25.7012 6.84415 25.4462 7.02715 25.2482 7.24315C25.0562 7.45915 24.9212 7.66315 24.8432 7.85515L23.4842 7.39615L24.5012 0.952148H30.4232V2.33815H25.8332L25.2752 6.03715C25.3052 5.98315 25.4072 5.88715 25.5812 5.74915C25.7612 5.60515 26.0132 5.47315 26.3372 5.35315C26.6612 5.22715 27.0542 5.16415 27.5162 5.16415C28.1162 5.16415 28.6742 5.29915 29.1902 5.56915C29.7062 5.83315 30.1232 6.23815 30.4412 6.78415C30.7592 7.32415 30.9212 8.00815 30.9272 8.83615C30.9272 9.66415 30.7652 10.3961 30.4412 11.0321C30.1232 11.6621 29.6612 12.1571 29.0552 12.5171C28.4492 12.8711 27.7262 13.0481 26.8862 13.0481C26.2682 13.0481 25.7342 12.9701 25.2842 12.8141C24.8402 12.6521 24.4682 12.4511 24.1682 12.2111C23.8682 11.9711 23.6342 11.7311 23.4662 11.4911C23.2982 11.2451 23.1812 11.0381 23.1152 10.8701L24.4652 10.2041Z" fill="white"/>
<path d="M20.3584 0.952148V8.94415H21.7174V10.3301H20.3584V12.8321H18.8104V10.3301H13.8154V9.05215L18.6844 0.952148H20.3584ZM18.8104 8.94415V3.28315H18.8014L15.4444 8.94415H18.8104Z" fill="white"/>
<path d="M11.1386 13.0483C10.8086 13.0483 10.5236 12.9313 10.2836 12.6973C10.0496 12.4573 9.93262 12.1723 9.93262 11.8423C9.93262 11.5003 10.0496 11.2123 10.2836 10.9783C10.5236 10.7383 10.8086 10.6183 11.1386 10.6183C11.4806 10.6183 11.7686 10.7383 12.0026 10.9783C12.2366 11.2123 12.3536 11.5003 12.3536 11.8423C12.3536 12.1723 12.2366 12.4573 12.0026 12.6973C11.7686 12.9313 11.4806 13.0483 11.1386 13.0483ZM11.1386 7.33332C10.8086 7.33332 10.5236 7.21632 10.2836 6.98232C10.0496 6.74232 9.93262 6.45732 9.93262 6.12732C9.93262 5.78532 10.0496 5.49732 10.2836 5.26332C10.5236 5.02332 10.8086 4.90332 11.1386 4.90332C11.4806 4.90332 11.7686 5.02332 12.0026 5.26332C12.2366 5.49732 12.3536 5.78532 12.3536 6.12732C12.3536 6.45732 12.2366 6.74232 12.0026 6.98232C11.7686 7.21632 11.4806 7.33332 11.1386 7.33332Z" fill="white"/>
<path d="M0.491313 0.952148H8.16831V2.05915L2.04831 12.8321H0.320312L6.35031 2.33815H0.491313V0.952148Z" fill="white"/>
</svg>
