<svg width="32" height="32" viewBox="0 0 32 32" fill="none" xmlns="http://www.w3.org/2000/svg">
<path d="M3.19465 19.0778C3.77731 19.0778 4.24965 18.6054 4.24965 18.0228C4.24965 17.4401 3.77731 16.9678 3.19465 16.9678C2.61199 16.9678 2.13965 17.4401 2.13965 18.0228C2.13965 18.6054 2.61199 19.0778 3.19465 19.0778Z" fill="url(#paint0_radial_10_3951)"/>
<path d="M3.19465 17.0778C3.77731 17.0778 4.24965 16.6054 4.24965 16.0228C4.24965 15.4401 3.77731 14.9678 3.19465 14.9678C2.61199 14.9678 2.13965 15.4401 2.13965 16.0228C2.13965 16.6054 2.61199 17.0778 3.19465 17.0778Z" fill="url(#paint1_radial_10_3951)"/>
<g filter="url(#filter0_ii_10_3951)">
<path d="M16.4827 8.76562H11.7947C7.0141 8.76562 3.13867 12.641 3.13867 17.4216V17.4226C3.13867 22.2032 7.0141 26.0786 11.7947 26.0786H16.4827C21.2632 26.0786 25.1387 22.2032 25.1387 17.4226V17.4216C25.1387 12.641 21.2632 8.76563 16.4827 8.76562Z" fill="url(#paint2_radial_10_3951)"/>
<path d="M16.4827 8.76562H11.7947C7.0141 8.76562 3.13867 12.641 3.13867 17.4216V17.4226C3.13867 22.2032 7.0141 26.0786 11.7947 26.0786H16.4827C21.2632 26.0786 25.1387 22.2032 25.1387 17.4226V17.4216C25.1387 12.641 21.2632 8.76563 16.4827 8.76562Z" fill="url(#paint3_linear_10_3951)"/>
</g>
<path d="M16.4836 8.76562H11.7956C7.01507 8.76562 3.13965 12.641 3.13965 17.4216V17.4226C3.13965 22.2032 7.01507 26.0786 11.7956 26.0786H16.4836C21.2642 26.0786 25.1396 22.2032 25.1396 17.4226V17.4216C25.1396 12.641 21.2642 8.76563 16.4836 8.76562Z" fill="url(#paint4_radial_10_3951)"/>
<path d="M16.4836 8.76562H11.7956C7.01507 8.76562 3.13965 12.641 3.13965 17.4216V17.4226C3.13965 22.2032 7.01507 26.0786 11.7956 26.0786H16.4836C21.2642 26.0786 25.1396 22.2032 25.1396 17.4226V17.4216C25.1396 12.641 21.2642 8.76563 16.4836 8.76562Z" fill="url(#paint5_radial_10_3951)"/>
<g filter="url(#filter1_f_10_3951)">
<path d="M12.5699 12.2028C12.52 12.158 12.4616 12.1238 12.3981 12.1021C12.3347 12.0804 12.2675 12.0717 12.2007 12.0765C12.1338 12.0813 12.0686 12.0994 12.0088 12.1299C11.9491 12.1604 11.8962 12.2026 11.8531 12.254C11.8101 12.3054 11.7778 12.3649 11.7582 12.429C11.7386 12.4932 11.7321 12.5606 11.739 12.6272C11.746 12.6939 11.7663 12.7585 11.7988 12.8172C11.8312 12.8759 11.8752 12.9274 11.9279 12.9688L12.5699 12.2028ZM11.8859 21.9138C11.7996 22.0108 11.7544 22.1377 11.76 22.2675C11.7656 22.3974 11.8215 22.5199 11.9159 22.6092C12.0103 22.6985 12.1357 22.7476 12.2656 22.746C12.3955 22.7444 12.5197 22.6923 12.6119 22.6008L11.8859 21.9138ZM11.9279 12.9688C14.4729 15.1008 14.7179 18.9198 11.8859 21.9138L12.6119 22.6008C15.7809 19.2508 15.6189 14.7578 12.5699 12.2028L11.9279 12.9688Z" fill="#3A94E7"/>
</g>
<g filter="url(#filter2_i_10_3951)">
<path d="M12.5699 12.2028C12.52 12.158 12.4616 12.1238 12.3981 12.1021C12.3347 12.0804 12.2675 12.0717 12.2007 12.0765C12.1338 12.0813 12.0686 12.0994 12.0088 12.1299C11.9491 12.1604 11.8962 12.2026 11.8531 12.254C11.8101 12.3054 11.7778 12.3649 11.7582 12.429C11.7386 12.4932 11.7321 12.5606 11.739 12.6272C11.746 12.6939 11.7663 12.7585 11.7988 12.8172C11.8312 12.8759 11.8752 12.9274 11.9279 12.9688L12.5699 12.2028ZM11.8859 21.9138C11.7996 22.0108 11.7544 22.1377 11.76 22.2675C11.7656 22.3974 11.8215 22.5199 11.9159 22.6092C12.0103 22.6985 12.1357 22.7476 12.2656 22.746C12.3955 22.7444 12.5197 22.6923 12.6119 22.6008L11.8859 21.9138ZM11.9279 12.9688C14.4729 15.1008 14.7179 18.9198 11.8859 21.9138L12.6119 22.6008C15.7809 19.2508 15.6189 14.7578 12.5699 12.2028L11.9279 12.9688Z" fill="#3F61E7"/>
<path d="M12.5699 12.2028C12.52 12.158 12.4616 12.1238 12.3981 12.1021C12.3347 12.0804 12.2675 12.0717 12.2007 12.0765C12.1338 12.0813 12.0686 12.0994 12.0088 12.1299C11.9491 12.1604 11.8962 12.2026 11.8531 12.254C11.8101 12.3054 11.7778 12.3649 11.7582 12.429C11.7386 12.4932 11.7321 12.5606 11.739 12.6272C11.746 12.6939 11.7663 12.7585 11.7988 12.8172C11.8312 12.8759 11.8752 12.9274 11.9279 12.9688L12.5699 12.2028ZM11.8859 21.9138C11.7996 22.0108 11.7544 22.1377 11.76 22.2675C11.7656 22.3974 11.8215 22.5199 11.9159 22.6092C12.0103 22.6985 12.1357 22.7476 12.2656 22.746C12.3955 22.7444 12.5197 22.6923 12.6119 22.6008L11.8859 21.9138ZM11.9279 12.9688C14.4729 15.1008 14.7179 18.9198 11.8859 21.9138L12.6119 22.6008C15.7809 19.2508 15.6189 14.7578 12.5699 12.2028L11.9279 12.9688Z" fill="url(#paint6_radial_10_3951)"/>
<path d="M12.5699 12.2028C12.52 12.158 12.4616 12.1238 12.3981 12.1021C12.3347 12.0804 12.2675 12.0717 12.2007 12.0765C12.1338 12.0813 12.0686 12.0994 12.0088 12.1299C11.9491 12.1604 11.8962 12.2026 11.8531 12.254C11.8101 12.3054 11.7778 12.3649 11.7582 12.429C11.7386 12.4932 11.7321 12.5606 11.739 12.6272C11.746 12.6939 11.7663 12.7585 11.7988 12.8172C11.8312 12.8759 11.8752 12.9274 11.9279 12.9688L12.5699 12.2028ZM11.8859 21.9138C11.7996 22.0108 11.7544 22.1377 11.76 22.2675C11.7656 22.3974 11.8215 22.5199 11.9159 22.6092C12.0103 22.6985 12.1357 22.7476 12.2656 22.746C12.3955 22.7444 12.5197 22.6923 12.6119 22.6008L11.8859 21.9138ZM11.9279 12.9688C14.4729 15.1008 14.7179 18.9198 11.8859 21.9138L12.6119 22.6008C15.7809 19.2508 15.6189 14.7578 12.5699 12.2028L11.9279 12.9688Z" fill="url(#paint7_radial_10_3951)"/>
<path d="M12.5699 12.2028C12.52 12.158 12.4616 12.1238 12.3981 12.1021C12.3347 12.0804 12.2675 12.0717 12.2007 12.0765C12.1338 12.0813 12.0686 12.0994 12.0088 12.1299C11.9491 12.1604 11.8962 12.2026 11.8531 12.254C11.8101 12.3054 11.7778 12.3649 11.7582 12.429C11.7386 12.4932 11.7321 12.5606 11.739 12.6272C11.746 12.6939 11.7663 12.7585 11.7988 12.8172C11.8312 12.8759 11.8752 12.9274 11.9279 12.9688L12.5699 12.2028ZM11.8859 21.9138C11.7996 22.0108 11.7544 22.1377 11.76 22.2675C11.7656 22.3974 11.8215 22.5199 11.9159 22.6092C12.0103 22.6985 12.1357 22.7476 12.2656 22.746C12.3955 22.7444 12.5197 22.6923 12.6119 22.6008L11.8859 21.9138ZM11.9279 12.9688C14.4729 15.1008 14.7179 18.9198 11.8859 21.9138L12.6119 22.6008C15.7809 19.2508 15.6189 14.7578 12.5699 12.2028L11.9279 12.9688Z" fill="url(#paint8_radial_10_3951)"/>
</g>
<path d="M8.82129 16.0576C9.09743 16.0576 9.32129 15.8338 9.32129 15.5576C9.32129 15.2815 9.09743 15.0576 8.82129 15.0576C8.54515 15.0576 8.32129 15.2815 8.32129 15.5576C8.32129 15.8338 8.54515 16.0576 8.82129 16.0576Z" fill="url(#paint9_radial_10_3951)"/>
<path d="M8.82129 16.0576C9.09743 16.0576 9.32129 15.8338 9.32129 15.5576C9.32129 15.2815 9.09743 15.0576 8.82129 15.0576C8.54515 15.0576 8.32129 15.2815 8.32129 15.5576C8.32129 15.8338 8.54515 16.0576 8.82129 16.0576Z" fill="url(#paint10_radial_10_3951)"/>
<path d="M8.82129 16.0576C9.09743 16.0576 9.32129 15.8338 9.32129 15.5576C9.32129 15.2815 9.09743 15.0576 8.82129 15.0576C8.54515 15.0576 8.32129 15.2815 8.32129 15.5576C8.32129 15.8338 8.54515 16.0576 8.82129 16.0576Z" fill="url(#paint11_linear_10_3951)"/>
<path d="M25.1396 22.2021C25.1396 23.263 25.5611 24.2804 26.3112 25.0306C27.0614 25.7807 28.0788 26.2021 29.1396 26.2021H29.3586C29.4913 26.2021 29.6184 26.1495 29.7122 26.0557C29.806 25.9619 29.8586 25.8348 29.8586 25.7021V21.4521C29.8586 20.3913 29.4372 19.3739 28.6871 18.6237C27.9369 17.8736 26.9195 17.4521 25.8586 17.4521H25.1396V22.2021Z" fill="url(#paint12_radial_10_3951)"/>
<path d="M25.1396 22.2021C25.1396 23.263 25.5611 24.2804 26.3112 25.0306C27.0614 25.7807 28.0788 26.2021 29.1396 26.2021H29.3586C29.4913 26.2021 29.6184 26.1495 29.7122 26.0557C29.806 25.9619 29.8586 25.8348 29.8586 25.7021V21.4521C29.8586 20.3913 29.4372 19.3739 28.6871 18.6237C27.9369 17.8736 26.9195 17.4521 25.8586 17.4521H25.1396V22.2021Z" fill="url(#paint13_radial_10_3951)"/>
<path d="M25.1396 22.2021C25.1396 23.263 25.5611 24.2804 26.3112 25.0306C27.0614 25.7807 28.0788 26.2021 29.1396 26.2021H29.3586C29.4913 26.2021 29.6184 26.1495 29.7122 26.0557C29.806 25.9619 29.8586 25.8348 29.8586 25.7021V21.4521C29.8586 20.3913 29.4372 19.3739 28.6871 18.6237C27.9369 17.8736 26.9195 17.4521 25.8586 17.4521H25.1396V22.2021Z" fill="url(#paint14_linear_10_3951)"/>
<path d="M25.1396 22.2021C25.1396 23.263 25.5611 24.2804 26.3112 25.0306C27.0614 25.7807 28.0788 26.2021 29.1396 26.2021H29.3586C29.4913 26.2021 29.6184 26.1495 29.7122 26.0557C29.806 25.9619 29.8586 25.8348 29.8586 25.7021V21.4521C29.8586 20.3913 29.4372 19.3739 28.6871 18.6237C27.9369 17.8736 26.9195 17.4521 25.8586 17.4521H25.1396V22.2021Z" fill="url(#paint15_radial_10_3951)"/>
<path d="M25.1396 12.7021C25.1396 11.6413 25.5611 10.6239 26.3112 9.87372C27.0614 9.12358 28.0788 8.70215 29.1396 8.70215H29.3586C29.4913 8.70215 29.6184 8.75483 29.7122 8.84859C29.806 8.94236 29.8586 9.06954 29.8586 9.20215V13.4521C29.8586 14.513 29.4372 15.5304 28.6871 16.2806C27.9369 17.0307 26.9195 17.4521 25.8586 17.4521H25.1396V12.7021Z" fill="url(#paint16_radial_10_3951)"/>
<path d="M25.1396 12.7021C25.1396 11.6413 25.5611 10.6239 26.3112 9.87372C27.0614 9.12358 28.0788 8.70215 29.1396 8.70215H29.3586C29.4913 8.70215 29.6184 8.75483 29.7122 8.84859C29.806 8.94236 29.8586 9.06954 29.8586 9.20215V13.4521C29.8586 14.513 29.4372 15.5304 28.6871 16.2806C27.9369 17.0307 26.9195 17.4521 25.8586 17.4521H25.1396V12.7021Z" fill="url(#paint17_radial_10_3951)"/>
<path d="M25.1396 12.7021C25.1396 11.6413 25.5611 10.6239 26.3112 9.87372C27.0614 9.12358 28.0788 8.70215 29.1396 8.70215H29.3586C29.4913 8.70215 29.6184 8.75483 29.7122 8.84859C29.806 8.94236 29.8586 9.06954 29.8586 9.20215V13.4521C29.8586 14.513 29.4372 15.5304 28.6871 16.2806C27.9369 17.0307 26.9195 17.4521 25.8586 17.4521H25.1396V12.7021Z" fill="url(#paint18_radial_10_3951)"/>
<path d="M15.3104 26.0771C16.2874 26.0771 17.0784 26.8681 17.0784 27.8441C17.0784 27.8731 17.0727 27.9018 17.0616 27.9286C17.0504 27.9553 17.0341 27.9796 17.0136 28.0001C16.9931 28.0205 16.9687 28.0367 16.9419 28.0477C16.9151 28.0587 16.8864 28.0643 16.8574 28.0641H15.0974C14.8363 28.0643 14.5778 28.013 14.3365 27.9132C14.0953 27.8134 13.8761 27.6671 13.6914 27.4826C13.5067 27.2981 13.3601 27.079 13.2601 26.8378C13.1601 26.5967 13.1085 26.3382 13.1084 26.0771H15.3104Z" fill="url(#paint19_radial_10_3951)"/>
<path d="M15.3104 26.0771C16.2874 26.0771 17.0784 26.8681 17.0784 27.8441C17.0784 27.8731 17.0727 27.9018 17.0616 27.9286C17.0504 27.9553 17.0341 27.9796 17.0136 28.0001C16.9931 28.0205 16.9687 28.0367 16.9419 28.0477C16.9151 28.0587 16.8864 28.0643 16.8574 28.0641H15.0974C14.8363 28.0643 14.5778 28.013 14.3365 27.9132C14.0953 27.8134 13.8761 27.6671 13.6914 27.4826C13.5067 27.2981 13.3601 27.079 13.2601 26.8378C13.1601 26.5967 13.1085 26.3382 13.1084 26.0771H15.3104Z" fill="url(#paint20_linear_10_3951)"/>
<path d="M15.3104 26.0771C16.2874 26.0771 17.0784 26.8681 17.0784 27.8441C17.0784 27.8731 17.0727 27.9018 17.0616 27.9286C17.0504 27.9553 17.0341 27.9796 17.0136 28.0001C16.9931 28.0205 16.9687 28.0367 16.9419 28.0477C16.9151 28.0587 16.8864 28.0643 16.8574 28.0641H15.0974C14.8363 28.0643 14.5778 28.013 14.3365 27.9132C14.0953 27.8134 13.8761 27.6671 13.6914 27.4826C13.5067 27.2981 13.3601 27.079 13.2601 26.8378C13.1601 26.5967 13.1085 26.3382 13.1084 26.0771H15.3104Z" fill="url(#paint21_radial_10_3951)"/>
<path d="M17.889 8.76552C18.9499 8.76552 19.9673 8.3441 20.7175 7.59395C21.4676 6.8438 21.889 5.82639 21.889 4.76552V4.43652C21.889 4.30392 21.8363 4.17674 21.7426 4.08297C21.6488 3.9892 21.5216 3.93652 21.389 3.93652H16.249C15.1882 3.93652 14.1707 4.35795 13.4206 5.1081C12.6705 5.85824 12.249 6.87566 12.249 7.93652V8.76552H17.889Z" fill="url(#paint22_radial_10_3951)"/>
<path d="M17.889 8.76552C18.9499 8.76552 19.9673 8.3441 20.7175 7.59395C21.4676 6.8438 21.889 5.82639 21.889 4.76552V4.43652C21.889 4.30392 21.8363 4.17674 21.7426 4.08297C21.6488 3.9892 21.5216 3.93652 21.389 3.93652H16.249C15.1882 3.93652 14.1707 4.35795 13.4206 5.1081C12.6705 5.85824 12.249 6.87566 12.249 7.93652V8.76552H17.889Z" fill="url(#paint23_linear_10_3951)"/>
<path d="M17.889 8.76552C18.9499 8.76552 19.9673 8.3441 20.7175 7.59395C21.4676 6.8438 21.889 5.82639 21.889 4.76552V4.43652C21.889 4.30392 21.8363 4.17674 21.7426 4.08297C21.6488 3.9892 21.5216 3.93652 21.389 3.93652H16.249C15.1882 3.93652 14.1707 4.35795 13.4206 5.1081C12.6705 5.85824 12.249 6.87566 12.249 7.93652V8.76552H17.889Z" fill="url(#paint24_radial_10_3951)"/>
<defs>
<filter id="filter0_ii_10_3951" x="2.88867" y="8.51562" width="22.25" height="17.5635" filterUnits="userSpaceOnUse" color-interpolation-filters="sRGB">
<feFlood flood-opacity="0" result="BackgroundImageFix"/>
<feBlend mode="normal" in="SourceGraphic" in2="BackgroundImageFix" result="shape"/>
<feColorMatrix in="SourceAlpha" type="matrix" values="0 0 0 0 0 0 0 0 0 0 0 0 0 0 0 0 0 0 127 0" result="hardAlpha"/>
<feOffset dx="-0.25" dy="-0.25"/>
<feGaussianBlur stdDeviation="0.5"/>
<feComposite in2="hardAlpha" operator="arithmetic" k2="-1" k3="1"/>
<feColorMatrix type="matrix" values="0 0 0 0 0.364706 0 0 0 0 0.407843 0 0 0 0 1 0 0 0 1 0"/>
<feBlend mode="normal" in2="shape" result="effect1_innerShadow_10_3951"/>
<feColorMatrix in="SourceAlpha" type="matrix" values="0 0 0 0 0 0 0 0 0 0 0 0 0 0 0 0 0 0 127 0" result="hardAlpha"/>
<feOffset dx="-0.125"/>
<feGaussianBlur stdDeviation="0.125"/>
<feComposite in2="hardAlpha" operator="arithmetic" k2="-1" k3="1"/>
<feColorMatrix type="matrix" values="0 0 0 0 0.164706 0 0 0 0 0.411765 0 0 0 0 0.823529 0 0 0 1 0"/>
<feBlend mode="normal" in2="effect1_innerShadow_10_3951" result="effect2_innerShadow_10_3951"/>
</filter>
<filter id="filter1_f_10_3951" x="10.7363" y="11.0752" width="5.18652" height="12.6709" filterUnits="userSpaceOnUse" color-interpolation-filters="sRGB">
<feFlood flood-opacity="0" result="BackgroundImageFix"/>
<feBlend mode="normal" in="SourceGraphic" in2="BackgroundImageFix" result="shape"/>
<feGaussianBlur stdDeviation="0.5" result="effect1_foregroundBlur_10_3951"/>
</filter>
<filter id="filter2_i_10_3951" x="11.7363" y="12.0752" width="3.18652" height="10.6709" filterUnits="userSpaceOnUse" color-interpolation-filters="sRGB">
<feFlood flood-opacity="0" result="BackgroundImageFix"/>
<feBlend mode="normal" in="SourceGraphic" in2="BackgroundImageFix" result="shape"/>
<feColorMatrix in="SourceAlpha" type="matrix" values="0 0 0 0 0 0 0 0 0 0 0 0 0 0 0 0 0 0 127 0" result="hardAlpha"/>
<feOffset/>
<feGaussianBlur stdDeviation="0.15"/>
<feComposite in2="hardAlpha" operator="arithmetic" k2="-1" k3="1"/>
<feColorMatrix type="matrix" values="0 0 0 0 0.133333 0 0 0 0 0.439216 0 0 0 0 0.941176 0 0 0 1 0"/>
<feBlend mode="normal" in2="shape" result="effect1_innerShadow_10_3951"/>
</filter>
<radialGradient id="paint0_radial_10_3951" cx="0" cy="0" r="1" gradientUnits="userSpaceOnUse" gradientTransform="translate(3.35878 17.6798) rotate(150.684) scale(1.1648 1.5939)">
<stop stop-color="#3AAEE7"/>
<stop offset="1" stop-color="#45A5E8"/>
</radialGradient>
<radialGradient id="paint1_radial_10_3951" cx="0" cy="0" r="1" gradientUnits="userSpaceOnUse" gradientTransform="translate(3.35773 15.68) rotate(150.684) scale(1.1648 1.5939)">
<stop stop-color="#3AAEE7"/>
<stop offset="1" stop-color="#45A5E8"/>
</radialGradient>
<radialGradient id="paint2_radial_10_3951" cx="0" cy="0" r="1" gradientUnits="userSpaceOnUse" gradientTransform="translate(11.1387 14.0776) rotate(52.125) scale(18.5279 24.3438)">
<stop stop-color="#50CAFF"/>
<stop offset="1" stop-color="#4D7FFF"/>
</radialGradient>
<linearGradient id="paint3_linear_10_3951" x1="14.1387" y1="27.4526" x2="14.1387" y2="22.5156" gradientUnits="userSpaceOnUse">
<stop stop-color="#508BFF"/>
<stop offset="1" stop-color="#508BFF" stop-opacity="0"/>
</linearGradient>
<radialGradient id="paint4_radial_10_3951" cx="0" cy="0" r="1" gradientUnits="userSpaceOnUse" gradientTransform="translate(5.88965 9.57763) rotate(54.3004) scale(12.8527 14.7095)">
<stop stop-color="#50CAFF"/>
<stop offset="1" stop-color="#50CAFF" stop-opacity="0"/>
</radialGradient>
<radialGradient id="paint5_radial_10_3951" cx="0" cy="0" r="1" gradientUnits="userSpaceOnUse" gradientTransform="translate(26.1397 27.2649) rotate(-144.29) scale(26.5554 22.4157)">
<stop offset="0.935" stop-color="#59C0E7" stop-opacity="0"/>
<stop offset="1" stop-color="#59C0E7"/>
</radialGradient>
<radialGradient id="paint6_radial_10_3951" cx="0" cy="0" r="1" gradientUnits="userSpaceOnUse" gradientTransform="translate(12.0459 22.5848) rotate(-51.9941) scale(1.49717 0.843918)">
<stop stop-color="#4A8CFF"/>
<stop offset="0.609" stop-color="#4A8CFF" stop-opacity="0"/>
</radialGradient>
<radialGradient id="paint7_radial_10_3951" cx="0" cy="0" r="1" gradientUnits="userSpaceOnUse" gradientTransform="translate(12.1869 12.5078) rotate(46.7358) scale(1.27669 0.760998)">
<stop stop-color="#4A8CFF"/>
<stop offset="0.609" stop-color="#4A8CFF" stop-opacity="0"/>
</radialGradient>
<radialGradient id="paint8_radial_10_3951" cx="0" cy="0" r="1" gradientUnits="userSpaceOnUse" gradientTransform="translate(13.3359 17.4218) scale(1.64731 3.34375)">
<stop offset="0.203" stop-color="#4F7FE6"/>
<stop offset="1" stop-color="#4F7FE6" stop-opacity="0"/>
</radialGradient>
<radialGradient id="paint9_radial_10_3951" cx="0" cy="0" r="1" gradientUnits="userSpaceOnUse" gradientTransform="translate(8.96929 15.3976) rotate(125.838) scale(0.693863 0.61862)">
<stop offset="0.006" stop-color="#433437"/>
<stop offset="1" stop-color="#3B2838"/>
</radialGradient>
<radialGradient id="paint10_radial_10_3951" cx="0" cy="0" r="1" gradientUnits="userSpaceOnUse" gradientTransform="translate(9.00733 15.4325) rotate(137.643) scale(0.35946 0.31624)">
<stop stop-color="#5C5051"/>
<stop offset="1" stop-color="#5C5051" stop-opacity="0"/>
</radialGradient>
<linearGradient id="paint11_linear_10_3951" x1="8.72229" y1="15.1656" x2="8.37929" y2="14.9466" gradientUnits="userSpaceOnUse">
<stop stop-color="#5C5051" stop-opacity="0"/>
<stop offset="1" stop-color="#5C5051"/>
</linearGradient>
<radialGradient id="paint12_radial_10_3951" cx="0" cy="0" r="1" gradientUnits="userSpaceOnUse" gradientTransform="translate(28.5146 18.8271) rotate(89.029) scale(7.37606 7.47017)">
<stop stop-color="#46AAFF"/>
<stop offset="1" stop-color="#368AFF"/>
</radialGradient>
<radialGradient id="paint13_radial_10_3951" cx="0" cy="0" r="1" gradientUnits="userSpaceOnUse" gradientTransform="translate(32.9525 18.7648) rotate(135.266) scale(9.50185 15.6131)">
<stop offset="0.801" stop-color="#3184E6" stop-opacity="0"/>
<stop offset="1" stop-color="#3184E6"/>
</radialGradient>
<linearGradient id="paint14_linear_10_3951" x1="38.5776" y1="23.6401" x2="25.1396" y2="23.6401" gradientUnits="userSpaceOnUse">
<stop offset="0.849" stop-color="#3184E6" stop-opacity="0"/>
<stop offset="1" stop-color="#3184E6"/>
</linearGradient>
<radialGradient id="paint15_radial_10_3951" cx="0" cy="0" r="1" gradientUnits="userSpaceOnUse" gradientTransform="translate(29.8586 19.2021) rotate(90) scale(7 2.96293)">
<stop stop-color="#54BDFF"/>
<stop offset="0.923" stop-color="#54BDFF" stop-opacity="0"/>
</radialGradient>
<radialGradient id="paint16_radial_10_3951" cx="0" cy="0" r="1" gradientUnits="userSpaceOnUse" gradientTransform="translate(28.8656 9.66715) rotate(109.396) scale(8.58528 6.27348)">
<stop stop-color="#46AAFF"/>
<stop offset="1" stop-color="#368AFF"/>
</radialGradient>
<radialGradient id="paint17_radial_10_3951" cx="0" cy="0" r="1" gradientUnits="userSpaceOnUse" gradientTransform="translate(33.3276 14.0771) rotate(-165.196) scale(9.05042 14.8713)">
<stop offset="0.726" stop-color="#3184E6" stop-opacity="0"/>
<stop offset="1" stop-color="#3184E6"/>
</radialGradient>
<radialGradient id="paint18_radial_10_3951" cx="0" cy="0" r="1" gradientUnits="userSpaceOnUse" gradientTransform="translate(29.8586 9.17115) rotate(90) scale(6.3125 1.16539)">
<stop stop-color="#54BDFF"/>
<stop offset="0.923" stop-color="#54BDFF" stop-opacity="0"/>
</radialGradient>
<radialGradient id="paint19_radial_10_3951" cx="0" cy="0" r="1" gradientUnits="userSpaceOnUse" gradientTransform="translate(15.8284 27.5771) rotate(-156.615) scale(2.51946 1.78775)">
<stop stop-color="#4286FF"/>
<stop offset="1" stop-color="#3170FF"/>
</radialGradient>
<linearGradient id="paint20_linear_10_3951" x1="15.3284" y1="25.6081" x2="15.3594" y2="26.5931" gradientUnits="userSpaceOnUse">
<stop stop-color="#0E66FD"/>
<stop offset="1" stop-color="#0E66FD" stop-opacity="0"/>
</linearGradient>
<radialGradient id="paint21_radial_10_3951" cx="0" cy="0" r="1" gradientUnits="userSpaceOnUse" gradientTransform="translate(17.3746 27.8905) rotate(-153.997) scale(2.85112 1.12711)">
<stop stop-color="#519DFF"/>
<stop offset="0.969" stop-color="#519DFF" stop-opacity="0"/>
</radialGradient>
<radialGradient id="paint22_radial_10_3951" cx="0" cy="0" r="1" gradientUnits="userSpaceOnUse" gradientTransform="translate(20.827 4.95252) rotate(156.038) scale(9.38736 4.65552)">
<stop stop-color="#46AAFF"/>
<stop offset="1" stop-color="#2B86D9"/>
</radialGradient>
<linearGradient id="paint23_linear_10_3951" x1="12.248" y1="9.54652" x2="12.248" y2="7.54652" gradientUnits="userSpaceOnUse">
<stop offset="0.109" stop-color="#0A75CC"/>
<stop offset="1" stop-color="#0A75CC" stop-opacity="0"/>
</linearGradient>
<radialGradient id="paint24_radial_10_3951" cx="0" cy="0" r="1" gradientUnits="userSpaceOnUse" gradientTransform="translate(22.389 3.57752) rotate(143.267) scale(5.22503 1.64552)">
<stop stop-color="#54BDFF"/>
<stop offset="0.644" stop-color="#54BDFF" stop-opacity="0"/>
</radialGradient>
</defs>
</svg>
