<svg width="20" height="20" viewBox="0 0 20 20" fill="none" xmlns="http://www.w3.org/2000/svg">
<g clip-path="url(#clip0_10_3917)">
<path d="M9.95621 7.6428L8.77788 6.46447L5.24121 10.0003L8.77704 13.5361L9.95538 12.357L8.43288 10.8336L14.7137 10.8336V9.16697H8.43288L9.95621 7.6428Z" fill="white" fill-opacity="0.64"/>
<path fill-rule="evenodd" clip-rule="evenodd" d="M3.51801 3.51866C-0.061992 7.09866 -0.061992 12.902 3.51801 16.482C7.09801 20.062 12.9013 20.062 16.4813 16.482C20.0613 12.902 20.0613 7.09866 16.4813 3.51866C12.9013 -0.0613384 7.09801 -0.0613384 3.51801 3.51866ZM4.69634 4.69699C3.28981 6.10352 2.49963 8.01119 2.49963 10.0003C2.49963 11.9895 3.28981 13.8971 4.69634 15.3037C6.10287 16.7102 8.01054 17.5004 9.99967 17.5004C11.9888 17.5004 13.8965 16.7102 15.303 15.3037C16.7095 13.8971 17.4997 11.9895 17.4997 10.0003C17.4997 8.01119 16.7095 6.10352 15.303 4.69699C13.8965 3.29046 11.9888 2.50028 9.99967 2.50028C8.01054 2.50028 6.10287 3.29046 4.69634 4.69699Z" fill="white" fill-opacity="0.64"/>
</g>
<defs>
<clipPath id="clip0_10_3917">
<rect width="20" height="20" fill="white" transform="matrix(0 -1 1 0 0 20)"/>
</clipPath>
</defs>
</svg>
