<svg width="20" height="20" viewBox="0 0 20 20" fill="none" xmlns="http://www.w3.org/2000/svg">
<g clip-path="url(#clip0_10_3924)">
<path d="M10.0438 12.3572L11.2221 13.5355L14.7588 9.9997L11.223 6.46387L10.0446 7.64303L11.5671 9.16637H5.28629V10.833H11.5671L10.0438 12.3572Z" fill="white" fill-opacity="0.64"/>
<path fill-rule="evenodd" clip-rule="evenodd" d="M16.482 16.4813C20.062 12.9013 20.062 7.09801 16.482 3.51801C12.902 -0.061992 7.09866 -0.061992 3.51866 3.51801C-0.0613384 7.09801 -0.0613384 12.9013 3.51866 16.4813C7.09866 20.0613 12.902 20.0613 16.482 16.4813ZM15.3037 15.303C16.7102 13.8965 17.5004 11.9888 17.5004 9.99967C17.5004 8.01054 16.7102 6.10287 15.3037 4.69634C13.8971 3.28981 11.9895 2.49963 10.0003 2.49963C8.01119 2.49963 6.10352 3.28981 4.69699 4.69634C3.29046 6.10287 2.50028 8.01054 2.50028 9.99967C2.50028 11.9888 3.29046 13.8965 4.69699 15.303C6.10352 16.7095 8.01119 17.4997 10.0003 17.4997C11.9895 17.4997 13.8971 16.7095 15.3037 15.303Z" fill="white" fill-opacity="0.64"/>
</g>
<defs>
<clipPath id="clip0_10_3924">
<rect width="20" height="20" fill="white" transform="matrix(0 1 -1 0 20 0)"/>
</clipPath>
</defs>
</svg>
