<svg width="56" height="46" viewBox="0 0 56 46" fill="none" xmlns="http://www.w3.org/2000/svg">
<path d="M28.3828 15.0219C28.3828 12.5366 28.7053 10.3582 29.3503 8.48684C29.9953 6.60088 30.8821 5.02924 32.0108 3.77193C33.1542 2.51462 34.4515 1.57164 35.9027 0.942982C37.3539 0.314327 38.8857 0 40.4982 0C42.14 0 43.6865 0.314327 45.1377 0.942982C46.5889 1.57164 47.8715 2.51462 48.9856 3.77193C50.1143 5.02924 51.0011 6.60088 51.6461 8.48684C52.2911 10.3582 52.6136 12.5366 52.6136 15.0219C52.6136 17.7266 52.2911 20.0292 51.6461 21.9298C51.0011 23.8304 50.1143 25.3728 48.9856 26.557C47.8715 27.7412 46.5889 28.6111 45.1377 29.1667C43.6865 29.7222 42.14 30 40.4982 30C38.8857 30 37.3539 29.7222 35.9027 29.1667C34.4515 28.6111 33.1542 27.7412 32.0108 26.557C30.8821 25.3728 29.9953 23.8304 29.3503 21.9298C28.7053 20.0292 28.3828 17.7266 28.3828 15.0219ZM36.0346 15.0219C36.0346 16.9225 36.2032 18.4868 36.5404 19.7149C36.8922 20.9284 37.3979 21.8348 38.0575 22.4342C38.7172 23.019 39.5307 23.3114 40.4982 23.3114C41.4803 23.3114 42.3012 23.019 42.9609 22.4342C43.6205 21.8348 44.1116 20.9211 44.434 19.693C44.7712 18.4649 44.9398 16.9079 44.9398 15.0219C44.9398 13.2822 44.7712 11.7982 44.434 10.5702C44.1116 9.32749 43.6205 8.36988 42.9609 7.69737C42.3012 7.02486 41.4803 6.6886 40.4982 6.6886C39.5307 6.6886 38.7172 7.02486 38.0575 7.69737C37.3979 8.36988 36.8922 9.32749 36.5404 10.5702C36.2032 11.8129 36.0346 13.2968 36.0346 15.0219Z" fill="white"/>
<path d="M5.35357 30L14.0051 19.8214C13.8744 19.9405 13.6564 20.0595 13.3514 20.1786C13.0463 20.2827 12.6177 20.3348 12.0656 20.3348C10.6128 20.3348 9.18902 19.9479 7.79431 19.1741C6.41413 18.4003 5.2664 17.2768 4.35112 15.8036C3.45037 14.3304 3 12.5595 3 10.4911C3 8.45238 3.4867 6.64435 4.46009 5.06696C5.448 3.48958 6.77007 2.25446 8.42629 1.36161C10.0825 0.453869 11.9131 0 13.918 0C15.9519 0 17.797 0.416667 19.4532 1.25C21.1094 2.08333 22.4315 3.30357 23.4194 4.91071C24.4219 6.50298 24.9231 8.43006 24.9231 10.692C24.9231 13.2217 24.5308 15.3423 23.7463 17.0536C22.9618 18.7649 22.0755 20.2232 21.0876 21.4286L14.2013 30H5.35357ZM13.9615 14.1741C14.6734 14.1741 15.3199 13.9955 15.9011 13.6384C16.4822 13.2813 16.9471 12.8051 17.2958 12.2098C17.6444 11.6146 17.8188 10.9524 17.8188 10.2232C17.8188 9.49405 17.6444 8.83185 17.2958 8.23661C16.9616 7.64137 16.4967 7.17262 15.9011 6.83036C15.3199 6.47321 14.6734 6.29464 13.9615 6.29464C13.2642 6.29464 12.6177 6.47321 12.022 6.83036C11.4409 7.17262 10.976 7.64137 10.6273 8.23661C10.2932 8.83185 10.1261 9.49405 10.1261 10.2232C10.1261 10.9524 10.3004 11.6146 10.6491 12.2098C10.9978 12.8051 11.4627 13.2813 12.0438 13.6384C12.6249 13.9955 13.2642 14.1741 13.9615 14.1741Z" fill="white"/>
<path d="M51.9403 41.1546C51.9444 41.4574 52.0099 41.7336 52.1367 41.9832C52.2636 42.2329 52.4518 42.4313 52.7014 42.5787C52.9552 42.726 53.2662 42.7997 53.6345 42.7997C53.9455 42.7997 54.2094 42.7546 54.4263 42.6646C54.6473 42.5705 54.8274 42.46 54.9665 42.3331C55.1056 42.2022 55.2059 42.0856 55.2673 41.9832L55.789 42.6278C55.654 42.8242 55.4883 42.9961 55.2918 43.1434C55.0995 43.2907 54.8642 43.4033 54.5859 43.481C54.3077 43.5629 53.968 43.6038 53.567 43.6038C53.0268 43.6038 52.5582 43.4892 52.1613 43.26C51.7684 43.0268 51.4656 42.7055 51.2528 42.2963C51.04 41.883 50.9336 41.4103 50.9336 40.8783C50.9336 40.3873 51.0339 39.9453 51.2344 39.5525C51.4349 39.1555 51.7254 38.8424 52.106 38.6133C52.4907 38.3841 52.9531 38.2695 53.4933 38.2695C53.9885 38.2695 54.4181 38.3739 54.7824 38.5826C55.1507 38.7872 55.4351 39.0778 55.6356 39.4542C55.8402 39.8307 55.9425 40.2809 55.9425 40.8047C55.9425 40.8374 55.9405 40.8968 55.9364 40.9827C55.9323 41.0645 55.9282 41.1218 55.9241 41.1546H51.9403ZM54.9235 40.3504C54.9194 40.1827 54.8703 39.9985 54.7762 39.798C54.6862 39.5975 54.5389 39.4256 54.3343 39.2824C54.1296 39.1391 53.8534 39.0675 53.5056 39.0675C53.1455 39.0675 52.8549 39.1371 52.6339 39.2762C52.417 39.4154 52.2574 39.5852 52.1551 39.7857C52.0528 39.9821 51.9935 40.1704 51.9771 40.3504H54.9235Z" fill="white"/>
<path d="M48.1362 43.4565H47.0742V38.4169H48.1362V39.2885H48.1055C48.1259 39.1821 48.2016 39.0491 48.3326 38.8895C48.4635 38.7299 48.6436 38.5867 48.8728 38.4598C49.1019 38.333 49.3761 38.2695 49.6953 38.2695C49.9286 38.2695 50.1332 38.3023 50.3091 38.3677C50.4892 38.4291 50.6161 38.4905 50.6897 38.5519L50.2539 39.4358C50.1966 39.3785 50.0963 39.3212 49.9531 39.2639C49.8099 39.2026 49.6319 39.1719 49.4191 39.1719C49.149 39.1719 48.9178 39.2558 48.7254 39.4235C48.5331 39.5913 48.3858 39.7939 48.2835 40.0312C48.1853 40.2645 48.1362 40.4814 48.1362 40.6819V43.4565Z" fill="white"/>
<path d="M43.2545 43.6038C42.7347 43.6038 42.2723 43.4871 41.8672 43.2539C41.4661 43.0206 41.151 42.7055 40.9219 42.3086C40.6927 41.9075 40.5781 41.4553 40.5781 40.952C40.5781 40.4487 40.6927 39.9944 40.9219 39.5893C41.151 39.1841 41.4661 38.8629 41.8672 38.6256C42.2723 38.3882 42.7347 38.2695 43.2545 38.2695C43.7701 38.2695 44.2264 38.3882 44.6233 38.6256C45.0244 38.8629 45.3374 39.1841 45.5625 39.5893C45.7876 39.9944 45.9001 40.4487 45.9001 40.952C45.9001 41.4553 45.7876 41.9075 45.5625 42.3086C45.3374 42.7055 45.0244 43.0206 44.6233 43.2539C44.2264 43.4871 43.7701 43.6038 43.2545 43.6038ZM43.2545 42.6892C43.5818 42.6892 43.8662 42.6135 44.1077 42.462C44.3532 42.3106 44.5435 42.104 44.6786 41.8421C44.8136 41.5761 44.8811 41.2773 44.8811 40.9459C44.8811 40.6144 44.8136 40.3157 44.6786 40.0497C44.5435 39.7837 44.3532 39.5729 44.1077 39.4174C43.8662 39.2619 43.5818 39.1841 43.2545 39.1841C42.923 39.1841 42.6345 39.2619 42.3889 39.4174C42.1434 39.5729 41.9511 39.7837 41.8119 40.0497C41.6769 40.3157 41.6094 40.6144 41.6094 40.9459C41.6094 41.2773 41.6769 41.5761 41.8119 41.8421C41.9511 42.104 42.1434 42.3106 42.3889 42.462C42.6345 42.6135 42.923 42.6892 43.2545 42.6892Z" fill="white"/>
<path d="M38.2042 42.7199C38.5234 42.7199 38.7812 42.6687 38.9777 42.5664C39.1741 42.4641 39.2969 42.3904 39.346 42.3454L39.8677 43.1127C39.8268 43.1495 39.7286 43.2089 39.5731 43.2907C39.4217 43.3685 39.2253 43.4401 38.9838 43.5056C38.7465 43.571 38.4764 43.6038 38.1735 43.6038C37.7111 43.6038 37.2814 43.5015 36.8845 43.2969C36.4875 43.0882 36.1663 42.7853 35.9208 42.3884C35.6793 41.9914 35.5586 41.5065 35.5586 40.9336C35.5586 40.3566 35.6793 39.8716 35.9208 39.4788C36.1663 39.0818 36.4875 38.7811 36.8845 38.5764C37.2814 38.3718 37.7111 38.2695 38.1735 38.2695C38.4723 38.2695 38.7383 38.3064 38.9715 38.38C39.2048 38.4496 39.3971 38.5273 39.5485 38.6133C39.7 38.6992 39.8002 38.7647 39.8493 38.8097L39.3214 39.577C39.2887 39.5443 39.2252 39.4952 39.1311 39.4297C39.0411 39.3601 38.9183 39.2967 38.7628 39.2394C38.6073 39.1821 38.4211 39.1535 38.2042 39.1535C37.9423 39.1535 37.6866 39.2251 37.4369 39.3683C37.1914 39.5074 36.9888 39.71 36.8292 39.976C36.6696 40.242 36.5898 40.5612 36.5898 40.9336C36.5898 41.306 36.6696 41.6272 36.8292 41.8973C36.9888 42.1633 37.1914 42.3679 37.4369 42.5111C37.6866 42.6503 37.9423 42.7199 38.2042 42.7199Z" fill="white"/>
<path d="M32.7796 38.2695C33.0415 38.2695 33.285 38.2961 33.51 38.3493C33.7392 38.4025 33.9356 38.466 34.0993 38.5396C34.2671 38.6133 34.3858 38.6788 34.4553 38.736L34.0318 39.4113C33.95 39.3376 33.8026 39.2558 33.5898 39.1657C33.377 39.0716 33.1397 39.0246 32.8778 39.0246C32.5913 39.0246 32.3478 39.0818 32.1473 39.1964C31.9468 39.3069 31.8465 39.4686 31.8465 39.6814C31.8465 39.8942 31.9488 40.064 32.1535 40.1908C32.3622 40.3136 32.6404 40.4159 32.9883 40.4978C33.2665 40.5632 33.5264 40.6512 33.7678 40.7617C34.0134 40.8722 34.2119 41.0257 34.3633 41.2221C34.5147 41.4144 34.5904 41.6722 34.5904 41.9955C34.5904 42.2902 34.529 42.5418 34.4062 42.7505C34.2835 42.9552 34.1177 43.1209 33.909 43.2478C33.7003 43.3705 33.4671 43.4605 33.2093 43.5178C32.9514 43.5751 32.6895 43.6038 32.4235 43.6038C32.1125 43.6038 31.8322 43.571 31.5826 43.5056C31.333 43.4442 31.1222 43.3705 30.9503 43.2846C30.7826 43.1946 30.6598 43.1168 30.582 43.0513L31.0056 42.2902C31.112 42.3925 31.2859 42.5009 31.5273 42.6155C31.7729 42.7301 32.0512 42.7874 32.3622 42.7874C32.7059 42.7874 32.9842 42.7158 33.197 42.5725C33.4098 42.4252 33.5162 42.2349 33.5162 42.0017C33.5162 41.8257 33.465 41.6845 33.3627 41.5781C33.2604 41.4717 33.1233 41.3858 32.9514 41.3203C32.7796 41.2548 32.5913 41.1975 32.3867 41.1484C32.1903 41.1034 31.998 41.0441 31.8097 40.9704C31.6256 40.8968 31.4557 40.8026 31.3002 40.6881C31.1488 40.5694 31.0281 40.4261 30.9381 40.2584C30.848 40.0865 30.803 39.886 30.803 39.6568C30.803 39.3663 30.8951 39.1187 31.0792 38.9141C31.2634 38.7054 31.5048 38.5458 31.8036 38.4353C32.1023 38.3248 32.4276 38.2695 32.7796 38.2695Z" fill="white"/>
<path d="M22.3315 46.01H21.2695V38.4169H22.3499V39.3622C22.3867 39.2353 22.489 39.0859 22.6568 38.9141C22.8246 38.7422 23.0497 38.5928 23.332 38.466C23.6185 38.335 23.9459 38.2695 24.3142 38.2695C24.7807 38.2695 25.194 38.3821 25.5541 38.6071C25.9183 38.8281 26.2027 39.1391 26.4073 39.5402C26.6161 39.9371 26.7204 40.4036 26.7204 40.9397C26.7204 41.4758 26.614 41.9444 26.4012 42.3454C26.1884 42.7424 25.8979 43.0513 25.5296 43.2723C25.1654 43.4933 24.7479 43.6038 24.2773 43.6038C23.8968 43.6038 23.5632 43.5322 23.2768 43.3889C22.9944 43.2457 22.7714 43.0841 22.6077 42.904C22.4481 42.7239 22.356 42.5807 22.3315 42.4743V46.01ZM25.6646 40.9397C25.6646 40.5755 25.5889 40.2604 25.4375 39.9944C25.2902 39.7284 25.0937 39.5218 24.8482 39.3744C24.6027 39.2271 24.3367 39.1535 24.0502 39.1535C23.7351 39.1535 23.4487 39.2292 23.1908 39.3806C22.933 39.5279 22.7284 39.7366 22.577 40.0067C22.4256 40.2727 22.3499 40.5837 22.3499 40.9397C22.3499 41.2957 22.4256 41.6088 22.577 41.8789C22.7284 42.1449 22.933 42.3515 23.1908 42.4989C23.4487 42.6462 23.7351 42.7199 24.0502 42.7199C24.3367 42.7199 24.6027 42.6482 24.8482 42.505C25.0937 42.3577 25.2902 42.151 25.4375 41.885C25.5889 41.619 25.6646 41.3039 25.6646 40.9397Z" fill="white"/>
<path d="M16.0692 41.1546C16.0733 41.4574 16.1388 41.7336 16.2656 41.9832C16.3925 42.2329 16.5807 42.4313 16.8304 42.5787C17.0841 42.726 17.3951 42.7997 17.7634 42.7997C18.0744 42.7997 18.3383 42.7546 18.5552 42.6646C18.7762 42.5705 18.9563 42.46 19.0954 42.3331C19.2345 42.2022 19.3348 42.0856 19.3962 41.9832L19.918 42.6278C19.7829 42.8242 19.6172 42.9961 19.4207 43.1434C19.2284 43.2907 18.9931 43.4033 18.7148 43.481C18.4366 43.5629 18.0969 43.6038 17.6959 43.6038C17.1557 43.6038 16.6871 43.4892 16.2902 43.26C15.8973 43.0268 15.5945 42.7055 15.3817 42.2963C15.1689 41.883 15.0625 41.4103 15.0625 40.8783C15.0625 40.3873 15.1628 39.9453 15.3633 39.5525C15.5638 39.1555 15.8543 38.8424 16.2349 38.6133C16.6196 38.3841 17.082 38.2695 17.6222 38.2695C18.1174 38.2695 18.547 38.3739 18.9113 38.5826C19.2796 38.7872 19.564 39.0778 19.7645 39.4542C19.9691 39.8307 20.0714 40.2809 20.0714 40.8047C20.0714 40.8374 20.0694 40.8968 20.0653 40.9827C20.0612 41.0645 20.0571 41.1218 20.053 41.1546H16.0692ZM19.0524 40.3504C19.0483 40.1827 18.9992 39.9985 18.9051 39.798C18.8151 39.5975 18.6678 39.4256 18.4632 39.2824C18.2585 39.1391 17.9823 39.0675 17.6345 39.0675C17.2744 39.0675 16.9838 39.1371 16.7628 39.2762C16.5459 39.4154 16.3863 39.5852 16.284 39.7857C16.1817 39.9821 16.1224 40.1704 16.106 40.3504H19.0524Z" fill="white"/>
<path d="M10.2215 41.1546C10.2256 41.4574 10.2911 41.7336 10.418 41.9832C10.5448 42.2329 10.7331 42.4313 10.9827 42.5787C11.2364 42.726 11.5474 42.7997 11.9157 42.7997C12.2267 42.7997 12.4907 42.7546 12.7076 42.6646C12.9286 42.5705 13.1086 42.46 13.2478 42.3331C13.3869 42.2022 13.4872 42.0856 13.5485 41.9832L14.0703 42.6278C13.9353 42.8242 13.7695 42.9961 13.5731 43.1434C13.3808 43.2907 13.1454 43.4033 12.8672 43.481C12.5889 43.5629 12.2492 43.6038 11.8482 43.6038C11.308 43.6038 10.8395 43.4892 10.4425 43.26C10.0497 43.0268 9.74684 42.7055 9.53404 42.2963C9.32124 41.883 9.21484 41.4103 9.21484 40.8783C9.21484 40.3873 9.3151 39.9453 9.51562 39.5525C9.71614 39.1555 10.0067 38.8424 10.3873 38.6133C10.7719 38.3841 11.2344 38.2695 11.7745 38.2695C12.2697 38.2695 12.6994 38.3739 13.0636 38.5826C13.4319 38.7872 13.7163 39.0778 13.9168 39.4542C14.1214 39.8307 14.2238 40.2809 14.2238 40.8047C14.2238 40.8374 14.2217 40.8968 14.2176 40.9827C14.2135 41.0645 14.2094 41.1218 14.2053 41.1546H10.2215ZM13.2048 40.3504C13.2007 40.1827 13.1516 39.9985 13.0575 39.798C12.9674 39.5975 12.8201 39.4256 12.6155 39.2824C12.4109 39.1391 12.1347 39.0675 11.7868 39.0675C11.4267 39.0675 11.1362 39.1371 10.9152 39.2762C10.6983 39.4154 10.5387 39.5852 10.4364 39.7857C10.3341 39.9821 10.2747 40.1704 10.2584 40.3504H13.2048Z" fill="white"/>
<path d="M8.01171 43.4562H6.9375V35.0098H8.01171V43.4562Z" fill="white"/>
<path d="M2.96762 35.2061C3.43414 35.2061 3.83518 35.2593 4.17075 35.3657C4.5104 35.4721 4.7764 35.5846 4.96873 35.7033C5.16516 35.8219 5.28179 35.8997 5.31862 35.9365L4.77844 36.802C4.71706 36.7488 4.60862 36.6731 4.45311 36.5749C4.29761 36.4726 4.10322 36.3826 3.86997 36.3048C3.63671 36.223 3.37071 36.1821 3.07198 36.1821C2.60955 36.1821 2.2433 36.2762 1.97321 36.4644C1.70721 36.6486 1.57421 36.9105 1.57421 37.2501C1.57421 37.4793 1.64378 37.6819 1.78292 37.8578C1.92615 38.0297 2.12667 38.1873 2.38448 38.3305C2.64229 38.4737 2.94307 38.621 3.28682 38.7724C3.56919 38.8911 3.84541 39.0262 4.1155 39.1776C4.38968 39.329 4.63726 39.507 4.85824 39.7116C5.08332 39.9162 5.26133 40.1536 5.39228 40.4237C5.52733 40.6938 5.59485 41.0048 5.59485 41.3567C5.59485 41.7045 5.52323 42.0176 5.38001 42.2959C5.24087 42.5741 5.04239 42.8115 4.78458 43.0079C4.53086 43.2003 4.23418 43.3476 3.89452 43.4499C3.55486 43.5522 3.18861 43.6033 2.79575 43.6033C2.30059 43.6033 1.85249 43.542 1.45145 43.4192C1.0545 43.2964 0.733257 43.1675 0.487722 43.0325C0.246279 42.8974 0.107143 42.8135 0.0703125 42.7808L0.641181 41.8785C0.690288 41.9194 0.780318 41.9808 0.91127 42.0626C1.04222 42.1404 1.20387 42.2222 1.3962 42.3082C1.58854 42.3941 1.80543 42.4678 2.04687 42.5291C2.28831 42.5864 2.54612 42.6151 2.8203 42.6151C3.36866 42.6151 3.78403 42.4923 4.06639 42.2468C4.34876 42.0012 4.48994 41.6861 4.48994 41.3015C4.48994 41.0068 4.39991 40.7531 4.21985 40.5403C4.03979 40.3275 3.8004 40.1372 3.50166 39.9694C3.20293 39.8017 2.8735 39.64 2.51339 39.4845C2.14508 39.3167 1.80747 39.1326 1.50055 38.932C1.19363 38.7315 0.946054 38.4921 0.75781 38.2139C0.573659 37.9315 0.481584 37.5918 0.481584 37.1949C0.481584 36.802 0.592074 36.4562 0.813056 36.1575C1.03813 35.8588 1.33891 35.6255 1.7154 35.4577C2.09598 35.2899 2.51339 35.2061 2.96762 35.2061Z" fill="white"/>
</svg>
