<svg width="17" height="16" viewBox="0 0 17 16" fill="none" xmlns="http://www.w3.org/2000/svg">
<path fill-rule="evenodd" clip-rule="evenodd" d="M8.32031 4.5C6.38732 4.5 4.82031 6.067 4.82031 8C4.82031 9.933 6.38732 11.5 8.32031 11.5C10.2533 11.5 11.8203 9.933 11.8203 8C11.8203 6.067 10.2533 4.5 8.32031 4.5ZM3.82031 8C3.82031 5.51472 5.83503 3.5 8.32031 3.5C10.8056 3.5 12.8203 5.51472 12.8203 8C12.8203 10.4853 10.8056 12.5 8.32031 12.5C5.83503 12.5 3.82031 10.4853 3.82031 8Z" fill="white"/>
<path fill-rule="evenodd" clip-rule="evenodd" d="M8.31999 0.833008C8.59613 0.833008 8.81999 1.05687 8.81999 1.33301V1.99967C8.81999 2.27582 8.59613 2.49967 8.31999 2.49967C8.04384 2.49967 7.81999 2.27582 7.81999 1.99967V1.33301C7.81999 1.05687 8.04384 0.833008 8.31999 0.833008ZM1.15332 7.99967C1.15332 7.72353 1.37718 7.49967 1.65332 7.49967H2.31999C2.59613 7.49967 2.81999 7.72353 2.81999 7.99967C2.81999 8.27582 2.59613 8.49967 2.31999 8.49967H1.65332C1.37718 8.49967 1.15332 8.27582 1.15332 7.99967ZM13.82 7.99967C13.82 7.72353 14.0438 7.49967 14.32 7.49967H14.9867C15.2628 7.49967 15.4867 7.72353 15.4867 7.99967C15.4867 8.27582 15.2628 8.49967 14.9867 8.49967H14.32C14.0438 8.49967 13.82 8.27582 13.82 7.99967ZM8.31999 13.4997C8.59613 13.4997 8.81999 13.7235 8.81999 13.9997V14.6663C8.81999 14.9425 8.59613 15.1663 8.31999 15.1663C8.04384 15.1663 7.81999 14.9425 7.81999 14.6663V13.9997C7.81999 13.7235 8.04384 13.4997 8.31999 13.4997Z" fill="white"/>
<path fill-rule="evenodd" clip-rule="evenodd" d="M3.25289 2.93258C3.44815 2.73732 3.76474 2.73732 3.96 2.93258L4.222 3.19458C4.41726 3.38984 4.41726 3.70642 4.222 3.90169C4.02674 4.09695 3.71015 4.09695 3.51489 3.90169L3.25289 3.63969C3.05763 3.44442 3.05763 3.12784 3.25289 2.93258ZM13.3869 2.9328C13.5824 3.12781 13.5828 3.44439 13.3878 3.6399L13.1264 3.9019C12.9314 4.09741 12.6149 4.09782 12.4193 3.9028C12.2238 3.70779 12.2234 3.39121 12.4184 3.1957L12.6798 2.9337C12.8748 2.73819 13.1914 2.73778 13.3869 2.9328ZM12.4193 12.0975C12.6149 11.9024 12.9314 11.9029 13.1264 12.0984L13.3878 12.3604C13.5828 12.5559 13.5824 12.8725 13.3869 13.0675C13.1914 13.2625 12.8748 13.2621 12.6798 13.0666L12.4184 12.8046C12.2234 12.6091 12.2238 12.2925 12.4193 12.0975ZM4.222 12.0986C4.41726 12.2938 4.41726 12.6104 4.222 12.8057L3.96 13.0677C3.76474 13.2629 3.44815 13.2629 3.25289 13.0677C3.05763 12.8724 3.05763 12.5558 3.25289 12.3606L3.51489 12.0986C3.71016 11.9033 4.02674 11.9033 4.222 12.0986Z" fill="white"/>
</svg>
