<svg width="16" height="16" viewBox="0 0 16 16" fill="none" xmlns="http://www.w3.org/2000/svg">
<path d="M7.99953 2.00045H8.26153C7.40509 2.79626 6.85459 3.86701 6.70572 5.0266C6.55686 6.18618 6.81903 7.36127 7.44669 8.3476C8.07434 9.33394 9.02777 10.0691 10.1413 10.4254C11.2548 10.7817 12.4579 10.7365 13.5415 10.2978C13.1247 11.3008 12.4434 12.1718 11.5703 12.818C10.6973 13.4641 9.66516 13.8611 8.58413 13.9667C7.50311 14.0723 6.4137 13.8824 5.43212 13.4174C4.45054 12.9523 3.6136 12.2296 3.01059 11.3262C2.40757 10.4228 2.0611 9.37264 2.00812 8.28776C1.95514 7.20289 2.19765 6.12398 2.70978 5.16613C3.2219 4.20827 3.98444 3.4074 4.91604 2.84894C5.84764 2.29048 6.91336 1.99538 7.99953 1.99512V2.00045Z" stroke="white" stroke-width="1.66667" stroke-linecap="round" stroke-linejoin="round"/>
</svg>
