<svg width="40" height="40" viewBox="0 0 40 40" fill="none" xmlns="http://www.w3.org/2000/svg">
<path fill-rule="evenodd" clip-rule="evenodd" d="M17.5033 3.33334C9.67921 3.33334 3.33658 9.67597 3.33658 17.5C3.33658 25.324 9.67921 31.6667 17.5033 31.6667C20.814 31.6667 23.8615 30.5293 26.2728 28.6267L34.3128 36.6667C34.9638 37.3175 36.019 37.3175 36.67 36.6667C37.3208 36.0158 37.3208 34.9605 36.67 34.3097L28.6298 26.2697C30.5327 23.8582 31.67 20.8108 31.67 17.5C31.67 9.67597 25.3273 3.33334 17.5033 3.33334ZM6.66991 17.5C6.66991 11.5169 11.5202 6.66667 17.5033 6.66667C23.4863 6.66667 28.3367 11.5169 28.3367 17.5C28.3367 20.492 27.1258 23.198 25.1635 25.1603C23.2013 27.1227 20.4953 28.3333 17.5033 28.3333C11.5202 28.3333 6.66991 23.4832 6.66991 17.5Z" fill="white"/>
</svg>
